<svg xmlns="http://www.w3.org/2000/svg" style="display:none">
  <symbol id="github" viewBox="0 0 24 24">
    <path d="M12 .5a12 12 0 0 0-3.79 23.39c.6.11.82-.26.82-.58v-2.02c-3.34.73-4.04-1.61-4.04-1.61-.55-1.4-1.34-1.77-1.34-1.77-1.09-.75.08-.73.08-.73 1.2.09 1.83 1.23 1.83 1.23 1.07 1.83 2.82 1.3 3.5.99.11-.78.42-1.3.76-1.6-2.67-.3-5.47-1.34-5.47-5.96 0-1.32.47-2.4 1.23-3.24-.12-.3-.54-1.52.12-3.17 0 0 1.01-.32 3.3 1.23a11.5 11.5 0 0 1 6.01 0c2.3-1.55 3.3-1.23 3.3-1.23.66 1.65.24 2.87.12 3.17.77.84 1.23 1.92 1.23 3.24 0 4.63-2.81 5.66-5.49 5.96.43.37.81 1.1.81 2.22v3.29c0 .32.21.7.82.58A12 12 0 0 0 12 .5z"/>
  </symbol>
  <symbol id="linkedin" viewBox="0 0 24 24">
    <path d="M4.98 3.5C4.98 4.88 3.86 6 2.5 6S0 4.88 0 3.5 1.12 1 2.5 1 4.98 2.12 4.98 3.5zM.5 8h4V23h-4V8zm7 0h3.83v2.05h.05c.53-1 1.82-2.05 3.75-2.05C19.4 8 22 10.02 22 14.29V23h-4v-7.5c0-1.79-.03-4.09-2.5-4.09-2.5 0-2.88 1.95-2.88 3.96V23h-4V8z"/>
  </symbol>
  <symbol id="twitter" viewBox="0 0 24 24">
    <path d="M23 5.01a9.56 9.56 0 0 1-2.74.75 4.78 4.78 0 0 0 2.1-2.64 9.58 9.58 0 0 1-3.04 1.16 4.77 4.77 0 0 0-8.13 4.35A13.55 13.55 0 0 1 1.64 3.16 4.77 4.77 0 0 0 3.1 9.6a4.74 4.74 0 0 1-2.16-.6v.06a4.77 4.77 0 0 0 3.83 4.68 4.8 4.8 0 0 1-2.15.08 4.78 4.78 0 0 0 4.46 3.31A9.58 9.58 0 0 1 0 20.41a13.51 13.51 0 0 0 7.32 2.15c8.78 0 13.58-7.27 13.58-13.58 0-.21 0-.42-.02-.63A9.7 9.7 0 0 0 23 5.01z"/>
  </symbol>
  <symbol id="telegram" viewBox="0 0 24 24">
    <path d="M9.04 15.3 8.86 19c.27 0 .39-.12.54-.27l2.59-2.49 5.37 3.95c.99.55 1.69.27 1.96-.92l3.55-16.65h0c.32-1.49-.54-2.07-1.5-1.71L1.12 9.53c-1.45.56-1.43 1.36-.25 1.72l6.51 2.03 15.14-9.55c.71-.47 1.36-.21.83.26L9.04 15.3z"/>
  </symbol>
</svg>


